<mxfile host="app.diagrams.net" modified="2023-10-15T19:55:47.471Z" agent="Mozilla/5.0 (Windows NT 10.0; Win64; x64) AppleWebKit/537.36 (KHTML, like Gecko) Chrome/118.0.0.0 Safari/537.36" etag="08UXWobXI82N2YOFbIch" version="22.0.4" type="github" pages="3">
  <diagram name="State Diagram" id="58cdce13-f638-feb5-8d6f-7d28b1aa9fa0">
    <mxGraphModel dx="2234" dy="1567" grid="1" gridSize="10" guides="1" tooltips="1" connect="1" arrows="1" fold="1" page="1" pageScale="1" pageWidth="1100" pageHeight="850" background="none" math="0" shadow="0">
      <root>
        <mxCell id="0" />
        <mxCell id="1" parent="0" />
        <mxCell id="382b91b5511bd0f7-1" value="" style="ellipse;html=1;shape=startState;fillColor=#000000;strokeColor=#ff0000;rounded=1;shadow=0;comic=0;labelBackgroundColor=none;fontFamily=Verdana;fontSize=12;fontColor=#000000;align=center;direction=south;" parent="1" vertex="1">
          <mxGeometry x="570" y="620" width="30" height="30" as="geometry" />
        </mxCell>
        <mxCell id="382b91b5511bd0f7-6" value="&lt;b&gt;&lt;br&gt;&lt;br&gt;Absorption&lt;/b&gt;&lt;br&gt;&lt;br&gt;&lt;div style=&quot;text-align: left;&quot;&gt;-Fan 1: ON&lt;/div&gt;&lt;div style=&quot;text-align: left;&quot;&gt;-Fan 2: OFF&lt;/div&gt;&lt;div style=&quot;text-align: left;&quot;&gt;-Heat: OFF&lt;/div&gt;&lt;div style=&quot;text-align: left;&quot;&gt;-Outlet: Atmosphere&lt;/div&gt;&lt;div style=&quot;text-align: left;&quot;&gt;-Pump: ON&lt;/div&gt;&lt;br&gt;&lt;br&gt;&lt;br&gt;&lt;br&gt;&lt;div style=&quot;text-align: left;&quot;&gt;&lt;br&gt;&lt;/div&gt;" style="rounded=1;whiteSpace=wrap;html=1;arcSize=24;fillColor=#ffffc0;strokeColor=#ff0000;shadow=0;comic=0;labelBackgroundColor=none;fontFamily=Verdana;fontSize=12;fontColor=#000000;align=center;" parent="1" vertex="1">
          <mxGeometry x="190" y="200" width="210" height="150" as="geometry" />
        </mxCell>
        <mxCell id="2a3bc250acf0617d-9" style="edgeStyle=orthogonalEdgeStyle;html=1;labelBackgroundColor=none;endArrow=open;endSize=8;strokeColor=#ff0000;fontFamily=Verdana;fontSize=12;align=left;" parent="1" source="382b91b5511bd0f7-1" target="wOmYhLNItbrUGuRl_a2_-1" edge="1">
          <mxGeometry relative="1" as="geometry">
            <mxPoint x="590" y="550" as="targetPoint" />
            <Array as="points">
              <mxPoint x="585" y="540" />
              <mxPoint x="585" y="540" />
            </Array>
          </mxGeometry>
        </mxCell>
        <mxCell id="2a3bc250acf0617d-10" style="edgeStyle=orthogonalEdgeStyle;html=1;labelBackgroundColor=none;endArrow=open;endSize=8;strokeColor=#ff0000;fontFamily=Verdana;fontSize=12;align=left;" parent="1" source="382b91b5511bd0f7-6" target="wOmYhLNItbrUGuRl_a2_-2" edge="1">
          <mxGeometry relative="1" as="geometry">
            <Array as="points">
              <mxPoint x="290" y="90" />
            </Array>
            <mxPoint x="470" y="90" as="targetPoint" />
          </mxGeometry>
        </mxCell>
        <mxCell id="2a3bc250acf0617d-12" style="edgeStyle=orthogonalEdgeStyle;html=1;exitX=0;exitY=0.5;labelBackgroundColor=none;endArrow=open;endSize=8;strokeColor=#ff0000;fontFamily=Verdana;fontSize=12;align=left;exitDx=0;exitDy=0;" parent="1" target="382b91b5511bd0f7-6" edge="1">
          <mxGeometry relative="1" as="geometry">
            <mxPoint x="530" y="440" as="sourcePoint" />
            <mxPoint x="270" y="300" as="targetPoint" />
            <Array as="points">
              <mxPoint x="290" y="440" />
            </Array>
          </mxGeometry>
        </mxCell>
        <mxCell id="2a3bc250acf0617d-13" style="edgeStyle=orthogonalEdgeStyle;html=1;entryX=1;entryY=0.5;labelBackgroundColor=none;endArrow=open;endSize=8;strokeColor=#ff0000;fontFamily=Verdana;fontSize=12;align=left;entryDx=0;entryDy=0;" parent="1" target="wOmYhLNItbrUGuRl_a2_-1" edge="1">
          <mxGeometry relative="1" as="geometry">
            <mxPoint x="930" y="330" as="sourcePoint" />
            <mxPoint x="650" y="440" as="targetPoint" />
            <Array as="points">
              <mxPoint x="930" y="440" />
            </Array>
          </mxGeometry>
        </mxCell>
        <mxCell id="2a3bc250acf0617d-14" style="edgeStyle=orthogonalEdgeStyle;html=1;labelBackgroundColor=none;endArrow=open;endSize=8;strokeColor=#ff0000;fontFamily=Verdana;fontSize=12;align=left;entryX=0.5;entryY=0;entryDx=0;entryDy=0;" parent="1" source="wOmYhLNItbrUGuRl_a2_-2" target="wOmYhLNItbrUGuRl_a2_-3" edge="1">
          <mxGeometry relative="1" as="geometry">
            <mxPoint x="700" y="80" as="sourcePoint" />
            <mxPoint x="930" y="170" as="targetPoint" />
            <Array as="points">
              <mxPoint x="925" y="90" />
            </Array>
          </mxGeometry>
        </mxCell>
        <mxCell id="2a3bc250acf0617d-8" value="FSM" style="shape=umlFrame;whiteSpace=wrap;html=1;rounded=1;shadow=0;comic=0;labelBackgroundColor=none;strokeWidth=1;fontFamily=Verdana;fontSize=12;align=center;" parent="1" vertex="1">
          <mxGeometry x="-1090" y="-230" width="1050" height="745" as="geometry" />
        </mxCell>
        <mxCell id="wOmYhLNItbrUGuRl_a2_-1" value="&lt;div style=&quot;&quot;&gt;&lt;b style=&quot;background-color: initial;&quot;&gt;&lt;br&gt;&lt;/b&gt;&lt;/div&gt;&lt;div style=&quot;&quot;&gt;&lt;b style=&quot;background-color: initial;&quot;&gt;Cooling&lt;/b&gt;&lt;/div&gt;&lt;div style=&quot;text-align: left;&quot;&gt;&lt;br&gt;&lt;/div&gt;&lt;div style=&quot;text-align: left;&quot;&gt;-Fan 1: OFF&lt;/div&gt;&lt;div style=&quot;text-align: left;&quot;&gt;-Fan 2: OFF&lt;/div&gt;&lt;div style=&quot;text-align: left;&quot;&gt;-Heat: OFF&lt;/div&gt;&lt;div style=&quot;text-align: left;&quot;&gt;-Outlet: Contain&lt;/div&gt;&lt;div style=&quot;text-align: left;&quot;&gt;&lt;span style=&quot;background-color: initial;&quot;&gt;-Pump: OFF&lt;/span&gt;&lt;/div&gt;&lt;br&gt;&lt;br&gt;&lt;br&gt;&lt;div style=&quot;text-align: left;&quot;&gt;&lt;br&gt;&lt;/div&gt;" style="rounded=1;whiteSpace=wrap;html=1;arcSize=24;fillColor=#ffffc0;strokeColor=#ff0000;shadow=0;comic=0;labelBackgroundColor=none;fontFamily=Verdana;fontSize=12;fontColor=#000000;align=center;" vertex="1" parent="1">
          <mxGeometry x="485" y="365" width="210" height="150" as="geometry" />
        </mxCell>
        <mxCell id="wOmYhLNItbrUGuRl_a2_-2" value="&lt;b&gt;&lt;br&gt;&lt;br&gt;&lt;br&gt;Heating&lt;/b&gt;&lt;br&gt;&lt;br&gt;&lt;div style=&quot;text-align: left;&quot;&gt;-Fan 1: ON&amp;nbsp;&lt;/div&gt;&lt;div style=&quot;text-align: left;&quot;&gt;-Fan 2: ON&lt;/div&gt;&lt;div style=&quot;text-align: left;&quot;&gt;-Heat: ON&lt;/div&gt;&lt;div style=&quot;text-align: left;&quot;&gt;-Outlet: Contain&lt;/div&gt;&lt;div style=&quot;text-align: left;&quot;&gt;-Pump: OFF&lt;/div&gt;&lt;div style=&quot;text-align: left;&quot;&gt;-RegulateTemp()&lt;/div&gt;&lt;br&gt;&lt;br&gt;&lt;br&gt;&lt;br&gt;&lt;div style=&quot;text-align: left;&quot;&gt;&lt;br&gt;&lt;/div&gt;" style="rounded=1;whiteSpace=wrap;html=1;arcSize=24;fillColor=#ffffc0;strokeColor=#ff0000;shadow=0;comic=0;labelBackgroundColor=none;fontFamily=Verdana;fontSize=12;fontColor=#000000;align=center;" vertex="1" parent="1">
          <mxGeometry x="485" y="30" width="210" height="150" as="geometry" />
        </mxCell>
        <mxCell id="wOmYhLNItbrUGuRl_a2_-3" value="&lt;b&gt;&lt;br&gt;&lt;br&gt;Desorption&lt;/b&gt;&lt;br&gt;&lt;div style=&quot;&quot;&gt;&lt;br&gt;&lt;/div&gt;&lt;div style=&quot;text-align: left;&quot;&gt;-Fan 1: ON&lt;/div&gt;&lt;div style=&quot;text-align: left;&quot;&gt;-Fan 2: ON&lt;/div&gt;&lt;div style=&quot;text-align: left;&quot;&gt;-Heat: OFF&lt;/div&gt;&lt;div style=&quot;text-align: left;&quot;&gt;-Outlet: To Algae&lt;/div&gt;&lt;div style=&quot;text-align: left;&quot;&gt;-Pump: ON&lt;/div&gt;&lt;div style=&quot;text-align: left;&quot;&gt;&lt;span style=&quot;background-color: initial;&quot;&gt;-RegulateTemp()&lt;/span&gt;&lt;/div&gt;&lt;br&gt;&lt;div style=&quot;text-align: left;&quot;&gt;&lt;br&gt;&lt;/div&gt;&lt;br&gt;&lt;div style=&quot;text-align: left;&quot;&gt;&lt;br&gt;&lt;/div&gt;" style="rounded=1;whiteSpace=wrap;html=1;arcSize=24;fillColor=#ffffc0;strokeColor=#ff0000;shadow=0;comic=0;labelBackgroundColor=none;fontFamily=Verdana;fontSize=12;fontColor=#000000;align=center;" vertex="1" parent="1">
          <mxGeometry x="820" y="200" width="210" height="150" as="geometry" />
        </mxCell>
        <mxCell id="wOmYhLNItbrUGuRl_a2_-5" value="Yco2,out &amp;gt;= 0.9 x Yco2,in" style="text;html=1;strokeColor=none;fillColor=none;align=center;verticalAlign=middle;whiteSpace=wrap;rounded=0;" vertex="1" parent="1">
          <mxGeometry x="300" y="90" width="150" height="30" as="geometry" />
        </mxCell>
        <mxCell id="wOmYhLNItbrUGuRl_a2_-7" value="Tsorbent &amp;gt;= Tdesorb - Ttolerance" style="text;html=1;strokeColor=none;fillColor=none;align=center;verticalAlign=middle;whiteSpace=wrap;rounded=0;" vertex="1" parent="1">
          <mxGeometry x="710" y="90" width="210" height="30" as="geometry" />
        </mxCell>
        <mxCell id="wOmYhLNItbrUGuRl_a2_-9" value="Yco2,out &amp;lt;= 1.1 x&amp;nbsp; Yco2,in" style="text;html=1;strokeColor=none;fillColor=none;align=center;verticalAlign=middle;whiteSpace=wrap;rounded=0;" vertex="1" parent="1">
          <mxGeometry x="710" y="410" width="210" height="30" as="geometry" />
        </mxCell>
        <mxCell id="wOmYhLNItbrUGuRl_a2_-10" value="Tsorbent &amp;lt;= Tambient + Ttolerance" style="text;html=1;strokeColor=none;fillColor=none;align=center;verticalAlign=middle;whiteSpace=wrap;rounded=0;" vertex="1" parent="1">
          <mxGeometry x="280" y="410" width="210" height="30" as="geometry" />
        </mxCell>
      </root>
    </mxGraphModel>
  </diagram>
  <diagram id="rlVPxSr4hb_QVy1cCUyF" name="RegulateTemp()">
    <mxGraphModel dx="794" dy="502" grid="1" gridSize="10" guides="1" tooltips="1" connect="1" arrows="1" fold="1" page="1" pageScale="1" pageWidth="850" pageHeight="1100" math="0" shadow="0">
      <root>
        <mxCell id="0" />
        <mxCell id="1" parent="0" />
      </root>
    </mxGraphModel>
  </diagram>
  <diagram id="wNO4s0AEW6e6Cde-mMrf" name="Page-3">
    <mxGraphModel dx="794" dy="502" grid="1" gridSize="10" guides="1" tooltips="1" connect="1" arrows="1" fold="1" page="1" pageScale="1" pageWidth="850" pageHeight="1100" math="0" shadow="0">
      <root>
        <mxCell id="0" />
        <mxCell id="1" parent="0" />
      </root>
    </mxGraphModel>
  </diagram>
</mxfile>
